<svg width="24" height="24" viewBox="0 0 24 24" fill="currentColor" xmlns="http://www.w3.org/2000/svg">
<path d="M9.39443 4.44721C9.53147 4.17313 9.8116 4 10.118 4H13.882C14.1884 4 14.4685 4.17313 14.6056 4.44721C15.0814 5.39886 16.0541 6 17.118 6H20C20.5523 6 21 6.44772 21 7V19C21 19.5523 20.5523 20 20 20H4C3.44772 20 3 19.5523 3 19V7C3 6.44772 3.44772 6 4 6H6.88197C7.94594 6 8.9186 5.39886 9.39443 4.44721ZM10.118 2C9.05406 2 8.0814 2.60114 7.60557 3.55279C7.46853 3.82687 7.1884 4 6.88197 4H4C2.34315 4 1 5.34315 1 7V19C1 20.6569 2.34315 22 4 22H20C21.6569 22 23 20.6569 23 19V7C23 5.34315 21.6569 4 20 4H17.118C16.8116 4 16.5315 3.82687 16.3944 3.55279C15.9186 2.60114 14.9459 2 13.882 2H10.118ZM10 13C10 11.8954 10.8954 11 12 11C13.1046 11 14 11.8954 14 13C14 14.1046 13.1046 15 12 15C10.8954 15 10 14.1046 10 13ZM12 9C9.79086 9 8 10.7909 8 13C8 15.2091 9.79086 17 12 17C14.2091 17 16 15.2091 16 13C16 10.7909 14.2091 9 12 9Z"/>
</svg>
