<svg width="24" height="24" viewBox="0 0 24 24" fill="currentColor" xmlns="http://www.w3.org/2000/svg">
<path d="M5 3C5 2.44772 5.44772 2 6 2H12.5V7.5C12.5 8.05228 12.9477 8.5 13.5 8.5H19V21C19 21.5523 18.5523 22 18 22H6C5.44772 22 5 21.5523 5 21V3ZM17.5858 6.5H14.5V3.41421L17.5858 6.5ZM6 0C4.34315 0 3 1.34315 3 3V21C3 22.6569 4.34315 24 6 24H18C19.6569 24 21 22.6569 21 21V7.5C21 7.23478 20.8946 6.98043 20.7071 6.79289L14.2071 0.292893C14.0196 0.105357 13.7652 0 13.5 0H6ZM8 8C7.44772 8 7 8.44772 7 9C7 9.55228 7.44772 10 8 10H10C10.5523 10 11 9.55228 11 9C11 8.44772 10.5523 8 10 8H8ZM7 13C7 12.4477 7.44772 12 8 12H15C15.5523 12 16 12.4477 16 13C16 13.5523 15.5523 14 15 14H8C7.44772 14 7 13.5523 7 13ZM8 16C7.44772 16 7 16.4477 7 17C7 17.5523 7.44772 18 8 18H15C15.5523 18 16 17.5523 16 17C16 16.4477 15.5523 16 15 16H8Z"/>
</svg>
