<svg width="24" height="24" viewBox="0 0 24 24" fill="currentColor" xmlns="http://www.w3.org/2000/svg">
<path d="M9 7C9 5.34315 10.3431 4 12 4C13.6569 4 15 5.34315 15 7C15 8.65685 13.6569 10 12 10C10.3431 10 9 8.65685 9 7ZM12 2C9.23858 2 7 4.23858 7 7C7 9.76142 9.23858 12 12 12C14.7614 12 17 9.76142 17 7C17 4.23858 14.7614 2 12 2ZM9 14C6.23858 14 4 16.2386 4 19V22C4 22.5523 4.44772 23 5 23C5.55228 23 6 22.5523 6 22V19C6 17.3431 7.34315 16 9 16H15C16.6569 16 18 17.3431 18 19V22C18 22.5523 18.4477 23 19 23C19.5523 23 20 22.5523 20 22V19C20 16.2386 17.7614 14 15 14H9Z"/>
</svg>
