<svg width="24" height="25" viewBox="0 0 24 25" fill="currentColor" xmlns="http://www.w3.org/2000/svg">
<path d="M3 12.5C3 7.52944 7.02944 3.5 12 3.5C16.9706 3.5 21 7.52944 21 12.5C21 17.4706 16.9706 21.5 12 21.5C7.02944 21.5 3 17.4706 3 12.5ZM12 1.5C5.92487 1.5 1 6.42487 1 12.5C1 18.5751 5.92487 23.5 12 23.5C18.0751 23.5 23 18.5751 23 12.5C23 6.42487 18.0751 1.5 12 1.5ZM13.7071 8.79289L16.7071 11.7929C17.0976 12.1834 17.0976 12.8166 16.7071 13.2071L13.7071 16.2071C13.3166 16.5976 12.6834 16.5976 12.2929 16.2071C11.9024 15.8166 11.9024 15.1834 12.2929 14.7929L13.5858 13.5H8C7.44771 13.5 7 13.0523 7 12.5C7 11.9477 7.44771 11.5 8 11.5H13.5858L12.2929 10.2071C11.9024 9.81658 11.9024 9.18342 12.2929 8.79289C12.6834 8.40237 13.3166 8.40237 13.7071 8.79289Z"/>
</svg>
