<svg width="25" height="24" viewBox="0 0 25 24" fill="currentColor" xmlns="http://www.w3.org/2000/svg">
<path d="M6.79289 13.2929C6.40237 13.6834 6.40237 14.3166 6.79289 14.7071L11.7929 19.7071C11.9804 19.8946 12.2348 20 12.5 20C12.7652 20 13.0196 19.8946 13.2071 19.7071L18.2071 14.7071C18.5976 14.3166 18.5976 13.6834 18.2071 13.2929C17.8166 12.9024 17.1834 12.9024 16.7929 13.2929L13.5 16.5858L13.5 5C13.5 4.44772 13.0523 4 12.5 4C11.9477 4 11.5 4.44772 11.5 5L11.5 16.5858L8.20711 13.2929C7.81658 12.9024 7.18342 12.9024 6.79289 13.2929Z"/>
</svg>
