<svg width="24" height="24" viewBox="0 0 24 24" fill="none" xmlns="http://www.w3.org/2000/svg">
<path d="M6.29289 10.7071C5.90237 10.3166 5.90237 9.68342 6.29289 9.29289L11.2929 4.29289C11.4804 4.10536 11.7348 4 12 4C12.2652 4 12.5196 4.10536 12.7071 4.29289L17.7071 9.29289C18.0976 9.68341 18.0976 10.3166 17.7071 10.7071C17.3166 11.0976 16.6834 11.0976 16.2929 10.7071L13 7.41421L13 19C13 19.5523 12.5523 20 12 20C11.4477 20 11 19.5523 11 19L11 7.41421L7.70711 10.7071C7.31658 11.0976 6.68342 11.0976 6.29289 10.7071Z" fill="#FF0151"/>
</svg>
