<svg width="24" height="24" viewBox="0 0 24 24" fill="none" xmlns="http://www.w3.org/2000/svg">
<path d="M16.5951 1.87868C15.4235 0.707107 13.524 0.707107 12.3525 1.87868L1.74587 12.4853C0.574294 13.6569 0.574295 15.5563 1.74587 16.7279L5.13898 20.121C5.13784 20.1229 5.13671 20.1248 5.13559 20.1268L6.05553 21.0463C6.43058 21.4211 6.93914 21.6317 7.46941 21.6317H12.4544C12.4571 21.6317 12.4598 21.6317 12.4625 21.6317H20.9989C21.5512 21.6317 21.9989 21.184 21.9989 20.6317C21.9989 20.0795 21.5512 19.6317 20.9989 19.6317H14.3984L22.252 11.7782C23.4235 10.6066 23.4235 8.70711 22.252 7.53553L16.5951 1.87868ZM13.7667 3.29289C14.1572 2.90237 14.7904 2.90237 15.1809 3.29289L20.8377 8.94975C21.2283 9.34027 21.2283 9.97344 20.8377 10.364L12.3525 18.8492L5.2814 11.7782L13.7667 3.29289Z" fill="#919191"/>
</svg>
