<svg width="22" height="21" viewBox="0 0 22 21" fill="currentColor" xmlns="http://www.w3.org/2000/svg">
<path d="M11 0C11.5523 0 12 0.447715 12 1V10.5858L13.7929 8.79289C14.1834 8.40237 14.8166 8.40237 15.2071 8.79289C15.5976 9.18342 15.5976 9.81658 15.2071 10.2071L11.7071 13.7071C11.3166 14.0976 10.6834 14.0976 10.2929 13.7071L6.79289 10.2071C6.40237 9.81658 6.40237 9.18342 6.79289 8.79289C7.18342 8.40237 7.81658 8.40237 8.20711 8.79289L10 10.5858V1C10 0.447715 10.4477 0 11 0ZM1 8.5C1.55228 8.5 2 8.94771 2 9.5V18C2 18.5523 2.44772 19 3 19H19C19.5523 19 20 18.5523 20 18V9.5C20 8.94771 20.4477 8.5 21 8.5C21.5523 8.5 22 8.94771 22 9.5V18C22 19.6569 20.6569 21 19 21H3C1.34315 21 0 19.6569 0 18V9.5C0 8.94771 0.447715 8.5 1 8.5Z"/>
</svg>
