<svg width="24" height="24" viewBox="0 0 24 24" fill="currentColor" xmlns="http://www.w3.org/2000/svg">
<path d="M19.2268 3.06065C20.5936 4.42748 20.5936 6.64356 19.2268 8.0104L8.05542 19.1818C7.7209 19.5163 7.31201 19.767 6.86213 19.9133L3.94618 20.8619C2.3916 21.3676 0.919892 19.8959 1.42559 18.3413L2.37414 15.4253C2.52049 14.9754 2.77115 14.5666 3.10567 14.232L14.2771 3.06065C15.6439 1.69382 17.86 1.69381 19.2268 3.06065ZM15.6913 4.47486L4.51989 15.6462C4.40838 15.7578 4.32483 15.8941 4.27604 16.044L3.32749 18.96L6.24344 18.0114C6.3934 17.9626 6.5297 17.8791 6.64121 17.7676L17.8126 6.59618C18.3984 6.0104 18.3984 5.06065 17.8126 4.47486C17.2268 3.88908 16.2771 3.88908 15.6913 4.47486ZM10.0012 21C9.44892 21 9.0012 21.4477 9.0012 22C9.0012 22.5523 9.44892 23 10.0012 23H21.0012C21.5535 23 22.0012 22.5523 22.0012 22C22.0012 21.4477 21.5535 21 21.0012 21H10.0012Z"/>
</svg>
