<svg width="38" height="36" viewBox="0 0 38 36" fill="none" xmlns="http://www.w3.org/2000/svg">
<path d="M19.0013 0.333374C19.9218 0.333374 20.668 1.07957 20.668 2.00004V17.9764L23.6561 14.9882C24.307 14.3373 25.3623 14.3373 26.0131 14.9882C26.664 15.6391 26.664 16.6943 26.0131 17.3452L20.1798 23.1786C19.5289 23.8294 18.4737 23.8294 17.8228 23.1786L11.9895 17.3452C11.3386 16.6943 11.3386 15.6391 11.9895 14.9882C12.6403 14.3373 13.6956 14.3373 14.3465 14.9882L17.3346 17.9764V2.00004C17.3346 1.07957 18.0808 0.333374 19.0013 0.333374ZM2.33464 14.5C3.25511 14.5 4.0013 15.2462 4.0013 16.1667V30.3334C4.0013 31.2538 4.74749 32 5.66797 32H32.3346C33.2551 32 34.0013 31.2538 34.0013 30.3334V16.1667C34.0013 15.2462 34.7475 14.5 35.668 14.5C36.5884 14.5 37.3346 15.2462 37.3346 16.1667V30.3334C37.3346 33.0948 35.0961 35.3334 32.3346 35.3334H5.66797C2.90655 35.3334 0.667969 33.0948 0.667969 30.3334V16.1667C0.667969 15.2462 1.41416 14.5 2.33464 14.5Z" fill="#919191"/>
</svg>
