
<svg  width="90px" height="50px" viewBox="0 0 89 50" version="1.1">

<path style="fill-rule:nonzero;fill:rgb(3.529412%,0%,0%);fill-opacity:1;stroke-width:1;stroke-linecap:butt;stroke-linejoin:miter;stroke:rgb(3.529412%,0%,0%);stroke-opacity:1;stroke-miterlimit:4;" d="M 345.999473 224.004844 L 403.007022 224.004844 L 403.007022 163.99125 L 348.215941 220.967969 Z M 345.999473 224.004844 " transform="matrix(0.220297,0,0,0.221239,0,0)"/>
<path style=" stroke:none;fill-rule:nonzero;fill:rgb(3.529412%,0%,0%);fill-opacity:1;" d="M 46.921875 0.222656 L 73.359375 0.222656 L 73.359375 49.558594 L 46.921875 49.558594 Z M 46.921875 0.222656 "/>
<path style=" stroke:none;fill-rule:nonzero;fill:rgb(3.529412%,0%,0%);fill-opacity:1;" d="M 15.199219 42.921875 C 15.199219 39.253906 11.796875 36.28125 7.601562 36.28125 C 3.402344 36.28125 0 39.253906 0 42.921875 C 0 46.585938 3.402344 49.558594 7.601562 49.558594 C 11.796875 49.558594 15.199219 46.585938 15.199219 42.921875 Z M 15.199219 42.921875 "/>
<path style="fill-rule:nonzero;fill:rgb(3.529412%,0%,0%);fill-opacity:1;stroke-width:1;stroke-linecap:butt;stroke-linejoin:miter;stroke:rgb(3.529412%,0%,0%);stroke-opacity:1;stroke-miterlimit:4;" d="M 112.773876 224.004844 L 37.006145 1.006406 L 155.755618 1.006406 L 201.007022 105.602031 Z M 112.773876 224.004844 " transform="matrix(0.220297,0,0,0.221239,0,0)"/>

</svg>
