<svg width="24" height="24" viewBox="0 0 24 24" fill="none" xmlns="http://www.w3.org/2000/svg">
<path d="M12.7071 1.29289C12.3166 0.902369 11.6834 0.902369 11.2929 1.29289L8.79289 3.79289C8.40237 4.18342 8.40237 4.81658 8.79289 5.20711C9.18342 5.59763 9.81658 5.59763 10.2071 5.20711L11 4.41421V9C11 9.55228 11.4477 10 12 10C12.5523 10 13 9.55228 13 9V4.41421L13.7929 5.20711C14.1834 5.59763 14.8166 5.59763 15.2071 5.20711C15.5976 4.81658 15.5976 4.18342 15.2071 3.79289L12.7071 1.29289ZM20.2071 15.2071L22.7071 12.7071C23.0976 12.3166 23.0976 11.6834 22.7071 11.2929L20.2071 8.79289C19.8166 8.40237 19.1834 8.40237 18.7929 8.79289C18.4024 9.18342 18.4024 9.81658 18.7929 10.2071L19.5858 11H15C14.4477 11 14 11.4477 14 12C14 12.5523 14.4477 13 15 13H19.5858L18.7929 13.7929C18.4024 14.1834 18.4024 14.8166 18.7929 15.2071C19.1834 15.5976 19.8166 15.5976 20.2071 15.2071ZM12.7071 22.7071L15.2071 20.2071C15.5976 19.8166 15.5976 19.1834 15.2071 18.7929C14.8166 18.4024 14.1834 18.4024 13.7929 18.7929L13 19.5858V15C13 14.4477 12.5523 14 12 14C11.4477 14 11 14.4477 11 15V19.5858L10.2071 18.7929C9.81658 18.4024 9.18342 18.4024 8.79289 18.7929C8.40237 19.1834 8.40237 19.8166 8.79289 20.2071L11.2929 22.7071C11.6834 23.0976 12.3166 23.0976 12.7071 22.7071ZM1.29289 12.7071C0.902369 12.3166 0.902369 11.6834 1.29289 11.2929L3.79289 8.79289C4.18342 8.40237 4.81658 8.40237 5.20711 8.79289C5.59763 9.18342 5.59763 9.81658 5.20711 10.2071L4.41421 11H9C9.55229 11 10 11.4477 10 12C10 12.5523 9.55228 13 9 13H4.41421L5.20711 13.7929C5.59763 14.1834 5.59763 14.8166 5.20711 15.2071C4.81658 15.5976 4.18342 15.5976 3.79289 15.2071L1.29289 12.7071Z" fill="#D2D2D2"/>
</svg>
