<svg width="24" height="24" viewBox="0 0 24 24" fill="currentColor" xmlns="http://www.w3.org/2000/svg">
<path fill-rule="evenodd" clip-rule="evenodd" d="M12.0137 0.5C10.7871 0.5 9.83314 1.50851 9.83314 2.76234V3.14394C7.10743 4.08431 5.19943 6.59196 5.19943 9.54935V11.2529V13.6243L3.42772 16.1456C2.88258 16.827 2.88258 17.7401 3.29144 18.5033C3.70029 19.2529 4.38172 19.7299 5.19943 19.7299H8.60657C8.60657 21.6106 10.242 23.1234 12.0137 23.1234C13.9217 23.1234 15.4208 21.6106 15.4208 19.7299H18.828C19.6457 19.7299 20.4634 19.2529 20.8723 18.5033C21.2811 17.7401 21.1448 16.827 20.5997 16.1456L18.828 13.6243V11.2529V9.54935C18.828 6.59196 16.92 4.08431 14.3306 3.14394V2.76234C14.3306 1.50851 13.2403 0.5 12.0137 0.5ZM13.2401 17.4675H10.9232H8.06121H5.19922L6.97093 15.2052L7.10721 14.9599C7.37979 14.5646 7.51607 14.1013 7.51607 13.6243V11.2529V9.54933C7.51607 7.05531 9.56035 5.02466 12.0135 5.02466C14.6029 5.02466 16.5109 7.05531 16.5109 9.54933V11.2529V13.6243C16.5109 14.1013 16.7835 14.5646 17.0561 14.9599L17.1923 15.2052L18.8278 17.4675H16.1021H13.2401ZM12.0122 20.861C11.467 20.861 10.9219 20.3568 10.9219 19.7299H13.2387C13.2387 20.3568 12.6936 20.861 12.0122 20.861Z"/>
</svg>
