<svg width="24" height="24" viewBox="0 0 24 24" fill="currentColor" xmlns="http://www.w3.org/2000/svg">
<path d="M2.51382 12C2.51382 11.4477 2.96154 11 3.51382 11L10.9991 11L10.9991 3.51472C10.9991 2.96243 11.4468 2.51472 11.9991 2.51472C12.5514 2.51472 12.9991 2.96243 12.9991 3.51472L12.9991 11H20.4844C21.0367 11 21.4844 11.4477 21.4844 12C21.4844 12.5523 21.0367 13 20.4844 13H12.9991L12.9991 20.4853C12.9991 21.0376 12.5514 21.4853 11.9991 21.4853C11.4468 21.4853 10.9991 21.0376 10.9991 20.4853L10.9991 13L3.51382 13C2.96154 13 2.51382 12.5523 2.51382 12Z" />
</svg>
