<svg width="25" height="25" viewBox="0 0 25 25" fill="currentColor" xmlns="http://www.w3.org/2000/svg">
<path d="M20.4968 1.92024C20.4528 1.36971 19.9708 0.95913 19.4202 1.00318C18.8697 1.04722 18.4591 1.52922 18.5032 2.07974L18.6047 3.34822C16.8583 2.18117 14.7583 1.5 12.5 1.5C6.42487 1.5 1.5 6.42487 1.5 12.5C1.5 18.5751 6.42487 23.5 12.5 23.5C18.5751 23.5 23.5 18.5751 23.5 12.5C23.5 11.9477 23.0523 11.5 22.5 11.5C21.9477 11.5 21.5 11.9477 21.5 12.5C21.5 17.4706 17.4706 21.5 12.5 21.5C7.52944 21.5 3.5 17.4706 3.5 12.5C3.5 7.52943 7.52944 3.5 12.5 3.5C14.4409 3.5 16.2376 4.11367 17.7079 5.15877L16.2521 5.53119C15.7171 5.66808 15.3943 6.21279 15.5312 6.74784C15.6681 7.28289 16.2128 7.60567 16.7479 7.46879L20.0405 6.62643C20.5121 6.50578 20.8283 6.06309 20.7895 5.57787L20.4968 1.92024ZM12.5 6.49999C13.0523 6.49999 13.5 6.94771 13.5 7.49999V12.0858L15.2071 13.7929C15.5976 14.1834 15.5976 14.8166 15.2071 15.2071C14.8166 15.5976 14.1834 15.5976 13.7929 15.2071L11.7929 13.2071C11.6054 13.0196 11.5 12.7652 11.5 12.5V7.49999C11.5 6.94771 11.9477 6.49999 12.5 6.49999Z"/>
</svg>
