<svg width="24" height="24" viewBox="0 0 24 24" fill="currentColor" xmlns="http://www.w3.org/2000/svg">
<g clip-path="url(#clip0_1511_2721)">
<path d="M22.6253 0.219612C22.9184 0.454471 23.0552 0.833776 22.9795 1.20166L19.4795 18.2017C19.4168 18.506 19.2163 18.7639 18.9368 18.8996C18.6573 19.0353 18.3307 19.0334 18.0528 18.8944L10.0528 14.8944C9.77576 14.7559 9.57855 14.4969 9.51879 14.193C9.45903 13.889 9.54347 13.5746 9.74742 13.3415L13.2474 9.34151C13.6111 8.92587 14.2429 8.88375 14.6585 9.24743C15.0741 9.61112 15.1163 10.2429 14.7526 10.6585L12.1049 13.6844L17.783 16.5235L20.626 2.71492L4.33118 10.0476L7.44721 11.6056C7.786 11.775 8 12.1212 8 12.5V18.8276L9.68077 16.4265C9.99748 15.9741 10.621 15.8641 11.0735 16.1808C11.5259 16.4975 11.6359 17.121 11.3192 17.5735L7.81923 22.5735C7.56893 22.931 7.11564 23.085 6.69936 22.9537C6.28308 22.8225 6 22.4365 6 22V13.118L1.55279 10.8944C1.20742 10.7218 0.992334 10.3657 1.00021 9.97962C1.00808 9.59356 1.23752 9.24654 1.58964 9.08809L21.5896 0.0880889C21.9322 -0.0660456 22.3322 -0.0152463 22.6253 0.219612Z"/>
</g>
<defs>
<clipPath id="clip0_1511_2721">
<rect width="24" height="24" fill="white"/>
</clipPath>
</defs>
</svg>
