<svg width="41" height="40" viewBox="0 0 41 40" fill="currentColor" xmlns="http://www.w3.org/2000/svg">
<path d="M20.5013 3.33337C21.4218 3.33337 22.168 4.07957 22.168 5.00004V20.9764L25.1561 17.9882C25.807 17.3373 26.8623 17.3373 27.5131 17.9882C28.164 18.6391 28.164 19.6943 27.5131 20.3452L21.6798 26.1786C21.0289 26.8294 19.9737 26.8294 19.3228 26.1786L13.4895 20.3452C12.8386 19.6943 12.8386 18.6391 13.4895 17.9882C14.1403 17.3373 15.1956 17.3373 15.8465 17.9882L18.8346 20.9764V5.00004C18.8346 4.07957 19.5808 3.33337 20.5013 3.33337ZM3.83464 17.5C4.75511 17.5 5.5013 18.2462 5.5013 19.1667V33.3334C5.5013 34.2538 6.24749 35 7.16797 35H33.8346C34.7551 35 35.5013 34.2538 35.5013 33.3334V19.1667C35.5013 18.2462 36.2475 17.5 37.168 17.5C38.0884 17.5 38.8346 18.2462 38.8346 19.1667V33.3334C38.8346 36.0948 36.5961 38.3334 33.8346 38.3334H7.16797C4.40655 38.3334 2.16797 36.0948 2.16797 33.3334V19.1667C2.16797 18.2462 2.91416 17.5 3.83464 17.5Z"/>
</svg>
