<svg width="24" height="24" viewBox="0 0 24 24" fill="currentColor" xmlns="http://www.w3.org/2000/svg">
<g clip-path="url(#clip0_20_998)">
<path d="M7.77808 13.435C5.82546 11.4824 5.82546 8.31658 7.77808 6.36396L12.0207 2.12132C13.9733 0.1687 17.1392 0.168699 19.0918 2.12132C21.0444 4.07394 21.0444 7.23977 19.0918 9.19239L18.7382 9.54594C18.3477 9.93647 17.7145 9.93647 17.324 9.54594C16.9335 9.15542 16.9335 8.52225 17.324 8.13173L17.6776 7.77818C18.8492 6.6066 18.8492 4.70711 17.6776 3.53553C16.506 2.36396 14.6065 2.36396 13.4349 3.53553L9.1923 7.77818C8.02072 8.94975 8.02072 10.8492 9.1923 12.0208C9.82578 12.6543 10.6705 12.9455 11.5018 12.8936C12.053 12.8593 12.5277 13.2783 12.5621 13.8295C12.5965 14.3807 12.1775 14.8554 11.6263 14.8898C10.2467 14.9758 8.83415 14.4911 7.77808 13.435ZM4.24255 21.2132C2.28993 19.2606 2.28993 16.0948 4.24255 14.1421L4.5961 13.7886C4.98663 13.3981 5.61979 13.3981 6.01032 13.7886C6.40084 14.1791 6.40084 14.8123 6.01032 15.2028L5.65676 15.5564C4.48519 16.7279 4.48519 18.6274 5.65676 19.799C6.82833 20.9706 8.72783 20.9706 9.8994 19.799L14.142 15.5564C15.3136 14.3848 15.3136 12.4853 14.142 11.3137C13.6397 10.8114 13.0061 10.5253 12.3516 10.4532C11.8026 10.3927 11.4066 9.89871 11.467 9.34975C11.5275 8.80078 12.0215 8.40475 12.5705 8.4652C13.6607 8.58524 14.7208 9.06408 15.5563 9.8995C17.5089 11.8521 17.5089 15.0179 15.5563 16.9706L11.3136 21.2132C9.36099 23.1658 6.19517 23.1658 4.24255 21.2132Z"/>
</g>
<defs>
<clipPath id="clip0_20_998">
<rect width="24" height="24" fill="white"/>
</clipPath>
</defs>
</svg>
