<svg fill="currentColor" xmlns="http://www.w3.org/2000/svg">
<path d="M1.9974 7.5C1.9974 4.18629 4.68369 1.5 7.9974 1.5C11.3111 1.5 13.9974 4.18629 13.9974 7.5C13.9974 10.8137 11.3111 13.5 7.9974 13.5C4.68369 13.5 1.9974 10.8137 1.9974 7.5ZM7.9974 0.166666C3.94731 0.166666 0.664062 3.44991 0.664062 7.5C0.664062 11.5501 3.94731 14.8333 7.9974 14.8333C12.0475 14.8333 15.3307 11.5501 15.3307 7.5C15.3307 3.44991 12.0475 0.166666 7.9974 0.166666ZM7.9974 4.16667C8.36559 4.16667 8.66406 4.46514 8.66406 4.83333V7.5C8.66406 7.86819 8.36559 8.16667 7.9974 8.16667C7.62921 8.16667 7.33073 7.86819 7.33073 7.5V4.83333C7.33073 4.46514 7.62921 4.16667 7.9974 4.16667ZM8.66406 10.1667C8.66406 10.5349 8.36559 10.8333 7.9974 10.8333C7.62921 10.8333 7.33073 10.5349 7.33073 10.1667C7.33073 9.79848 7.62921 9.5 7.9974 9.5C8.36559 9.5 8.66406 9.79848 8.66406 10.1667Z"/>
</svg>
