<svg width="81" height="81" viewBox="0 0 81 81" fill="none" xmlns="http://www.w3.org/2000/svg">
  <g clip-path="url(#clip0_1892_16912)">
    <rect x="4.75" y="9.5" width="71" height="47" fill="#FF0151" />
    <path d="M43.6618 60.5767H38.1445V72.2242H43.6618V60.5767Z" fill="currentColor" />
    <path
      d="M20.0594 70.0785C18.5359 70.0785 17.3008 71.3136 17.3008 72.8371C17.3008 74.3607 18.5359 75.5958 20.0594 75.5958H61.7452C63.2688 75.5958 64.5038 74.3607 64.5038 72.8371C64.5038 71.3136 63.2688 70.0785 61.7452 70.0785H20.0594Z"
      fill="currentColor" />
    <path fill-rule="evenodd" clip-rule="evenodd"
      d="M7.79981 5.71075C3.90632 5.71075 0.75 8.86705 0.75 12.7606V53.5268C0.75 57.4205 3.90632 60.5767 7.79981 60.5767H73.7002C77.5938 60.5767 80.75 57.4205 80.75 53.5268V12.7606C80.75 8.86705 77.5938 5.71075 73.7002 5.71075H7.79981ZM7.79981 11.228C6.9534 11.228 6.26724 11.9141 6.26724 12.7606V53.5268C6.26724 54.3731 6.9534 55.0594 7.79981 55.0594H74.0067C74.853 55.0594 75.5393 54.3731 75.5393 53.5268V12.7606C75.5393 11.9141 74.853 11.228 74.0067 11.228H7.79981Z"
      fill="currentColor" />
  </g>
  <defs>
    <clipPath id="clip0_1892_16912">
      <rect width="80" height="80" fill="white" transform="translate(0.75 0.5)" />
    </clipPath>
  </defs>
</svg>