<svg width="81" height="81" viewBox="0 0 81 81" fill="none" xmlns="http://www.w3.org/2000/svg">
  <g clip-path="url(#clip0_1892_16920)">
    <rect x="4.25" y="9.5" width="71" height="32" fill="#FF0151" />
    <path d="M43.1618 60.5767H37.6445V72.2242H43.1618V60.5767Z" fill="currentColor" />
    <path
      d="M19.5594 70.0785C18.0359 70.0785 16.8008 71.3135 16.8008 72.8371C16.8008 74.3606 18.0359 75.5957 19.5594 75.5957H61.2452C62.7688 75.5957 64.0038 74.3606 64.0038 72.8371C64.0038 71.3135 62.7688 70.0785 61.2452 70.0785H19.5594Z"
      fill="currentColor" />
    <path fill-rule="evenodd" clip-rule="evenodd"
      d="M7.29981 5.71075C3.40632 5.71075 0.25 8.86705 0.25 12.7606V53.5268C0.25 57.4205 3.40632 60.5767 7.29981 60.5767H73.2002C77.0938 60.5767 80.25 57.4205 80.25 53.5268V12.7606C80.25 8.86705 77.0938 5.71075 73.2002 5.71075H7.29981ZM7.29981 11.228C6.4534 11.228 5.76724 11.9141 5.76724 12.7606V53.5268C5.76724 54.3731 6.4534 55.0594 7.29981 55.0594H73.5067C74.353 55.0594 75.0393 54.3731 75.0393 53.5268V12.7606C75.0393 11.9141 74.353 11.228 73.5067 11.228H7.29981Z"
      fill="currentColor" />
  </g>
  <defs>
    <clipPath id="clip0_1892_16920">
      <rect width="80" height="80" fill="white" transform="translate(0.25 0.5)" />
    </clipPath>
  </defs>
</svg>