<svg width="24" height="24" viewBox="0 0 24 24" fill="none" xmlns="http://www.w3.org/2000/svg">
<path d="M16.8791 11.74C18.0381 11.987 18.9691 12.5665 19.6721 13.4785C20.3751 14.3715 20.7266 15.3975 20.7266 16.5565C20.7266 18.2285 20.1376 19.5585 18.9596 20.5465C17.8006 21.5155 16.1761 22 14.0861 22H4.7666V1.99304H13.7726C15.8056 1.99304 17.3921 2.45854 18.5321 3.38954C19.6911 4.32054 20.2706 5.58404 20.2706 7.18004C20.2706 8.35804 19.9571 9.33654 19.3301 10.1155C18.7221 10.8945 17.9051 11.436 16.8791 11.74ZM9.6401 10.087H12.8321C13.6301 10.087 14.2381 9.91604 14.6561 9.57404C15.0931 9.21304 15.3116 8.69054 15.3116 8.00654C15.3116 7.32254 15.0931 6.80004 14.6561 6.43904C14.2381 6.07804 13.6301 5.89754 12.8321 5.89754H9.6401V10.087ZM13.2311 18.067C14.0481 18.067 14.6751 17.8865 15.1121 17.5255C15.5681 17.1455 15.7961 16.604 15.7961 15.901C15.7961 15.198 15.5586 14.647 15.0836 14.248C14.6276 13.849 13.9911 13.6495 13.1741 13.6495H9.6401V18.067H13.2311Z" fill="#919191"/>
</svg>
