<svg width="17" height="16" viewBox="0 0 17 16" fill="none" xmlns="http://www.w3.org/2000/svg">
<rect x="0.333008" width="16" height="16" rx="8" fill="white"/>
<path d="M5.97702 4.70005C5.71667 4.4397 5.29456 4.4397 5.03421 4.70005C4.77386 4.9604 4.77386 5.38251 5.03421 5.64286L7.39123 7.99988L5.03421 10.3569C4.77386 10.6172 4.77386 11.0394 5.03421 11.2997C5.29456 11.5601 5.71667 11.5601 5.97702 11.2997L8.33404 8.94269L10.6911 11.2997C10.9514 11.5601 11.3735 11.5601 11.6339 11.2997C11.8942 11.0394 11.8942 10.6173 11.6339 10.3569L9.27685 7.99988L11.6339 5.64286C11.8942 5.38251 11.8942 4.9604 11.6339 4.70005C11.3735 4.4397 10.9514 4.4397 10.6911 4.70005L8.33404 7.05707L5.97702 4.70005Z" fill="#747372"/>
</svg>
