<svg width="25" height="24" viewBox="0 0 25 24" fill="none" xmlns="http://www.w3.org/2000/svg">
<path d="M5.95891 5.29289C6.34943 4.90237 6.9826 4.90237 7.37312 5.29289L12.666 10.5858L17.9589 5.29289C18.3494 4.90237 18.9826 4.90237 19.3731 5.29289C19.7636 5.68342 19.7636 6.31658 19.3731 6.70711L14.0802 12L19.3731 17.2929C19.7636 17.6834 19.7636 18.3166 19.3731 18.7071C18.9826 19.0976 18.3494 19.0976 17.9589 18.7071L12.666 13.4142L7.37312 18.7071C6.9826 19.0976 6.34943 19.0976 5.95891 18.7071C5.56838 18.3166 5.56838 17.6834 5.95891 17.2929L11.2518 12L5.95891 6.70711C5.56838 6.31658 5.56838 5.68342 5.95891 5.29289Z" fill="#919191"/>
</svg>
