<svg xmlns="http://www.w3.org/2000/svg" width="45" height="36" viewBox="0 0 45 36" fill="none">
    <path d="M18.75 7.5C19.5784 7.5 20.25 8.17157 20.25 9C20.25 9.82843 19.5784 10.5 18.75 10.5C17.9216 10.5 17.25 9.82843 17.25 9C17.25 8.17157 17.9216 7.5 18.75 7.5ZM18.75 16.5C19.5784 16.5 20.25 17.1716 20.25 18C20.25 18.8284 19.5784 19.5 18.75 19.5C17.9216 19.5 17.25 18.8284 17.25 18C17.25 17.1716 17.9216 16.5 18.75 16.5ZM18.75 25.5C19.5784 25.5 20.25 26.1716 20.25 27C20.25 27.8284 19.5784 28.5 18.75 28.5C17.9216 28.5 17.25 27.8284 17.25 27C17.25 26.1716 17.9216 25.5 18.75 25.5Z" fill="#AAA8B9" stroke="#AAA8B9" stroke-width="1.5"/>
    <path d="M26.25 7.5C27.0784 7.5 27.75 8.17157 27.75 9C27.75 9.82843 27.0784 10.5 26.25 10.5C25.4216 10.5 24.75 9.82843 24.75 9C24.75 8.17157 25.4216 7.5 26.25 7.5ZM26.25 16.5C27.0784 16.5 27.75 17.1716 27.75 18C27.75 18.8284 27.0784 19.5 26.25 19.5C25.4216 19.5 24.75 18.8284 24.75 18C24.75 17.1716 25.4216 16.5 26.25 16.5ZM26.25 25.5C27.0784 25.5 27.75 26.1716 27.75 27C27.75 27.8284 27.0784 28.5 26.25 28.5C25.4216 28.5 24.75 27.8284 24.75 27C24.75 26.1716 25.4216 25.5 26.25 25.5Z" fill="#AAA8B9" stroke="#AAA8B9" stroke-width="1.5"/>
</svg>