<svg width="63" height="48" viewBox="0 0 63 48" fill="none" xmlns="http://www.w3.org/2000/svg">
<path d="M1.20687 46.008C0.658996 46.0777 0.271331 46.5783 0.340995 47.1261C0.410659 47.674 0.911273 48.0617 1.45915 47.992L1.20687 46.008ZM33.6649 37.8L34.2199 38.6318L33.6649 37.8ZM58.1982 0.498565C57.9213 0.0207307 57.3094 -0.14213 56.8316 0.134805L49.0448 4.64772C48.567 4.92466 48.4041 5.53652 48.6811 6.01435C48.958 6.49219 49.5699 6.65505 50.0477 6.37811L56.9692 2.36663L60.9807 9.28819C61.2577 9.76603 61.8695 9.92889 62.3474 9.65195C62.8252 9.37502 62.9881 8.76316 62.7111 8.28532L58.1982 0.498565ZM1.45915 47.992C13.4986 46.4612 24.9368 44.8255 34.2199 38.6318L33.1099 36.9682C24.2802 42.8594 13.3226 44.4674 1.20687 46.008L1.45915 47.992ZM34.2199 38.6318C41.6238 33.692 46.585 28.3837 50.2299 22.2599C53.8643 16.1538 56.1644 9.27828 58.2994 1.25722L56.3667 0.742783C54.2453 8.71247 52.0017 15.3728 48.5113 21.237C45.0315 27.0835 40.2868 32.1798 33.1099 36.9682L34.2199 38.6318Z" fill="#FF0151"/>
</svg>
