<svg width="24" height="24" viewBox="0 0 24 24" fill="none" xmlns="http://www.w3.org/2000/svg">
<path d="M15.0218 1.00001H19C19.5523 1.00001 20 1.44772 20 2.00001C20 2.55229 19.5523 3.00001 19 3.00001H15.7621L10.8121 21H14C14.5523 21 15 21.4477 15 22C15 22.5523 14.5523 23 14 23H9.52293C9.50807 23.0003 9.49317 23.0003 9.47822 23H5C4.44772 23 4 22.5523 4 22C4 21.4477 4.44772 21 5 21H8.73788L13.6879 3.00001H10C9.44772 3.00001 9 2.55229 9 2.00001C9 1.44772 9.44772 1.00001 10 1.00001H14.977C14.9919 0.999673 15.0068 0.999671 15.0218 1.00001Z" fill="#919191"/>
</svg>
