<?xml version="1.0" encoding="UTF-8" standalone="no"?>
<svg
   zoomAndPan="magnify"
   viewBox="0 0 30.170036 30.170036"
   preserveAspectRatio="xMidYMid"
   version="1.0"
   id="svg4">
  <defs id="defs8" />
  <path
     d="m 19.294003,13.782284 c -0.933594,-0.9375 -1.96875,-1.96875 -2.90625,-2.90625 -1.984375,-1.9843755 -5.589844,-1.7539065 -8.0429695,0.695313 -1.957031,1.957031 -4.359375,4.359375 -6.316406,6.316406 -2.44921899,2.453125 -2.67968699,6.058594 -0.695313,8.042969 0.9375,0.9375 1.96875,1.972656 2.90625,2.90625 1.984376,1.984375 5.59375,1.753906 8.0429695,-0.695313 1.386719,-1.390625 3,-3.003906 4.519531,-4.523437 0.394532,-0.390625 0.394532,-1.027344 0,-1.421875 -0.390624,-0.394532 -1.027343,-0.394532 -1.421874,0 -1.519532,1.519531 -3.132813,3.132812 -4.519532,4.523437 -1.5937505,1.589844 -3.9101565,1.984375 -5.1992185,0.695313 0,0 -2.90625,-2.90625 -2.90625,-2.90625 -1.285157,-1.289063 -0.894532,-3.605469 0.699218,-5.195313 1.957032,-1.957031 4.359375,-4.359375 6.316406,-6.316406 1.5898445,-1.59375 3.9062505,-1.988281 5.1953135,-0.699219 0,0 2.90625,2.90625 2.90625,2.90625 0.390625,0.394532 1.03125,0.394532 1.421875,0 0.394531,-0.390625 0.394531,-1.03125 0,-1.421875 z m -8.417969,2.605469 c 0.9375,0.9375 1.96875,1.972656 2.90625,2.90625 1.984375,1.984375 5.59375,1.753906 8.042969,-0.695312 1.957031,-1.957032 4.359375,-4.359376 6.316406,-6.316407 2.449219,-2.4492195 2.679688,-6.0585935 0.695313,-8.0429695 -0.933594,-0.9375 -1.96875,-1.96875 -2.90625,-2.90625 -1.984375,-1.98437399 -5.589844,-1.75390599 -8.042969,0.695313 -1.386719,1.390625 -3,3.003906 -4.519531,4.523437 -0.394531,0.390626 -0.394531,1.03125 0,1.421876 0.390625,0.394531 1.03125,0.394531 1.421875,0 1.519531,-1.519532 3.132812,-3.132813 4.523437,-4.519532 1.589844,-1.59375 3.90625,-1.984375 5.195313,-0.699218 0,0 2.90625,2.90625 2.90625,2.90625 1.289062,1.289062 0.894531,3.605468 -0.695313,5.1992185 -1.957031,1.953125 -4.359375,4.359375 -6.320312,6.3125 -1.589844,1.59375 -3.90625,1.988282 -5.195313,0.699219 0,0 -2.90625,-2.90625 -2.90625,-2.90625 -0.390625,-0.394531 -1.03125,-0.394531 -1.421875,0 -0.394531,0.390625 -0.394531,1.03125 0,1.421875 z m 0,0"
     fill-opacity="1"
     fill-rule="evenodd"
     id="path2"
    />
</svg>
