<?xml version="1.0" encoding="UTF-8" standalone="no"?>
<svg
   width="150"
   height="150"
   zoomAndPan="magnify"
   viewBox="0 0 102.8633 97.819196"
   preserveAspectRatio="xMidYMid"
   version="1.0"
   id="svg21">
  <defs
     id="defs11">
    <clipPath
       id="3aa80e8590">
      <path
         d="m 2,3 h 104 v 99 H 2 Z m 0,0"
         clip-rule="nonzero"
         id="path2" />
    </clipPath>
    <clipPath
       id="cfcfb32f6e">
      <path
         d="M -5.246094,73.339844 90.683594,0.0078125 113.91406,30.394531 17.984375,103.72656 Z m 0,0"
         clip-rule="nonzero"
         id="path5" />
    </clipPath>
    <clipPath
       id="4ca0482403">
      <path
         d="M -5.246094,73.339844 90.683594,0.0078125 113.91406,30.394531 17.984375,103.72656 Z m 0,0"
         clip-rule="nonzero"
         id="path8" />
    </clipPath>
  </defs>
  <g
     clip-path="url(#3aa80e8590)"
     id="g19"
     transform="translate(-2.9917156,-3.909822)">
    <g
       clip-path="url(#cfcfb32f6e)"
       id="g17">
      <g
         clip-path="url(#4ca0482403)"
         id="g15">
        <path
           fill="#db2754"
           d="m 102.94922,18.765625 c -0.25,0.02734 -0.49609,0.05469 -0.74609,0.07813 -0.0781,-0.08203 -0.15235,-0.164062 -0.22657,-0.25 0.25,-0.878906 -0.76172,-0.816406 -0.99609,-1.332031 0.50391,-0.453125 0.21875,-0.832031 -0.12109,-1.207031 -0.125,-0.183594 -0.25,-0.371094 -0.375,-0.554688 0.33203,-0.328125 0.67968,-0.796875 0.18359,-1.082031 -0.26172,-0.148438 -1.023439,-0.730469 -1.308595,0.195312 -0.289063,0.0625 -0.472656,-0.105469 -0.636719,-0.300781 0.269532,-0.378906 -0.53125,-1.027344 0.09375,-1.148438 0.902344,-0.175781 0.390625,-0.519531 0.125,-0.652343 -1.378906,-0.683594 -2.78125,-1.304688 -2.890625,-3.152344 0,-0.023437 -0.199219,-0.035156 -0.308593,-0.054687 -0.574219,-0.25 -0.574219,0.347656 -0.832032,0.5625 C 94.605469,9.699219 94.304688,9.53125 94,9.363281 93.726562,9.097656 93.707031,8.546875 93.167969,8.617188 93.125,8.621094 93.128906,8.988281 93.113281,9.191406 92.347656,9.28125 92.28125,8.191406 91.535156,8.25 91.203125,7.921875 91.070312,7.40625 90.566406,7.269531 90.550781,7.265625 90.4375,7.632812 90.367188,7.824219 89.785156,7.308594 89.191406,6.914062 88.484375,7.632812 c -0.01953,0.152344 -0.04297,0.300782 -0.07422,0.449219 0,-0.00391 -0.0039,-0.00781 -0.0078,-0.011719 -0.08203,0.066407 -0.171875,0.125 -0.265625,0.171876 C 87.996094,8.070312 87.855469,7.902344 87.71875,7.730469 87.921875,7.433594 88.125,7.136719 88.324219,6.835938 89.777344,5.980469 89.875,5.304688 88.734375,4.066406 c -0.40625,0.011719 -0.824219,-0.371094 -1.222656,0.019532 -0.867188,-0.023438 -1.65625,0.0625 -1.644531,1.222656 -0.07422,0.074218 -0.15625,0.140625 -0.25,0.195312 -1.351563,-0.488281 -1.8125,0.523438 -2.351563,1.402344 -0.08203,0.0625 -0.160156,0.121094 -0.242187,0.183594 C 82.9375,7.011719 82.851562,6.933594 82.765625,6.851562 82.714844,6.753906 82.65625,6.65625 82.59375,6.566406 82.324219,6.773438 82.054688,6.976562 81.789062,7.183594 81.699219,7.25 81.609375,7.320312 81.519531,7.386719 81.253906,7.589844 80.984375,7.796875 80.71875,8 c -0.628906,0.480469 -1.253906,0.957031 -1.878906,1.4375 -0.265625,0.203125 -0.535156,0.410156 -0.804688,0.613281 0.0039,1.375 -1.863281,1.15625 -2.023437,2.390625 -1.253907,0.949219 -2.507813,1.898438 -3.757813,2.847656 -0.605468,0.492188 -1.21875,0.984376 -1.824218,1.476563 -0.175782,0.136719 -0.351563,0.273437 -0.53125,0.414063 -0.1875,0.125 -0.375,0.25 -0.566407,0.375 -0.933593,-0.08594 -1.296875,0.535156 -1.566406,1.273437 -0.08984,0.07422 -0.179687,0.144531 -0.273437,0.214844 -0.542969,0.40625 -1.085938,0.8125 -1.628907,1.214843 -0.210937,0.273438 -0.417969,0.550782 -0.628906,0.824219 C 64,20.398438 64.121094,21.496094 63.875,22.113281 c -0.171875,0.140625 -0.34375,0.277344 -0.515625,0.417969 -1.042969,-0.453125 -1.238281,0.230469 -1.355469,1.011719 -0.175781,0.144531 -0.347656,0.285156 -0.519531,0.429687 -1.054687,-0.292968 -1.566406,0.164063 -1.648437,1.199219 -0.07422,0.0625 -0.144532,0.125 -0.21875,0.183594 -0.984376,-0.128907 -1.835938,-0.09375 -1.679688,1.277343 -0.84375,0.09375 -1.769531,0.05078 -2.023438,1.171876 -0.179687,0.3125 -0.769531,0.109374 -0.792968,0.628906 -0.175782,0.136718 -0.351563,0.273437 -0.53125,0.417968 -0.640625,-0.117187 -1.027344,0.125 -1.097656,0.796876 -0.304688,0.148437 -0.863282,-0.03125 -0.785157,0.613281 -0.765625,1.011719 -2.242187,1.242187 -2.757812,2.527343 -1.359375,0.4375 -2.3125,1.414063 -3.21875,2.445313 -0.691407,0.04297 -0.28125,0.960937 -0.859375,1.097656 -0.640625,-0.105469 -1,0.171875 -1.09375,0.808594 -0.460938,0.5 -0.921875,1 -1.386719,1.5 -0.921875,-0.277344 -1.085937,0.441406 -1.355469,1.027344 -0.07422,0.08594 -0.148437,0.167969 -0.21875,0.253906 -0.183594,0.136719 -0.367187,0.273437 -0.550781,0.410156 -0.371094,0.285157 -0.90625,0.425781 -0.890625,1.042969 -0.167969,0.152344 -0.332031,0.300781 -0.5,0.453125 -0.539062,0.40625 -1.078125,0.816406 -1.617188,1.222656 -1.0625,0.277344 -1.605468,1.226563 -2.386718,1.863281 -0.398438,0.261719 -0.914063,0.421876 -0.933594,1.03125 -0.316406,0.320313 -0.949219,0.265626 -1.019531,0.871094 -0.792969,0.269532 -1.519531,0.628906 -1.898438,1.441406 -0.4375,0.335938 -0.875,0.667969 -1.3125,1.003907 -0.09766,0.07031 -0.191406,0.144531 -0.289062,0.214843 -0.558594,0.566407 -1.113281,1.132813 -1.671875,1.699219 -1.015625,0.121094 -1.082032,1.175781 -1.667969,1.71875 -0.617187,-0.08594 -0.746094,0.484375 -1.070313,0.792969 0.05859,-0.0078 0.117188,-0.01172 0.175782,-0.01563 -0.05469,0.01953 -0.113282,0.02734 -0.171875,0.01172 -0.308594,0.222656 -0.695313,0.386718 -0.65625,0.875 -0.75,-0.04297 -0.886719,0.660156 -1.289063,1.050781 -0.535156,0.414063 -1.070312,0.828125 -1.605468,1.246094 -0.292969,0.359375 -0.585938,0.71875 -0.878907,1.078125 -0.867187,0.5625 -1.59375,1.273437 -2.195312,2.117187 -0.09375,0.07031 -0.183594,0.140625 -0.277344,0.210938 -0.109375,0.22266 -0.21875,0.449223 -0.332031,0.675785 -0.449219,0.335938 -0.898438,0.675781 -1.347656,1.015625 -0.175782,0.929687 -1.34375,0.898437 -1.648438,1.707031 -0.08984,0.07422 -0.179688,0.144532 -0.269531,0.21875 -0.523438,0.769532 -1.445313,1.199219 -1.789063,2.117188 0.01172,0.01172 0.02344,0.01953 0.03516,0.02734 0,0 -0.0039,0 -0.0039,0.0039 0,0 -0.03125,-0.03125 -0.03125,-0.03125 -0.242197,0.0547 -0.480478,0.105478 -0.722666,0.160166 -2.058594,-0.0625 -2.046875,1.832031 -2.816406,2.988281 -1.035156,0.355469 -1.65625,1.050781 -1.75,2.167969 -0.570313,0.550781 -1.402344,0.859375 -1.617188,1.738281 -0.054687,0.679688 -1.292968,0.859375 -0.761718,1.792969 0.0625,0.08594 0.128906,0.171875 0.203124,0.253906 -0.066406,0.08203 -0.140624,0.15625 -0.21875,0.222656 C 5.996094,75.472656 5.957031,75.621094 5.921875,75.773438 5.757812,75.933594 5.597656,76.089844 5.433594,76.25 5.136719,76.617188 4.3125,76.230469 4.316406,77.035156 3.9375,77.339844 3.789062,77.714844 3.960938,78.191406 c -0.5625,0.421875 -0.566407,1.011719 -0.484376,1.628906 -0.085937,1.042969 -0.925781,2.035157 -0.175781,3.125 0.019531,0.550782 0.546875,0.714844 0.820313,1.074219 C 3.773438,84.292969 3.757812,84.609375 4,84.964844 c 0.210938,0.269531 0.425781,0.53125 0.640625,0.800781 0.296875,-0.04687 0.492187,0.113281 0.664063,0.320313 0.160156,0.02344 0.324218,0.04297 0.488281,0.0625 0.363281,0.652343 0.835937,0.722656 1.402343,0.253906 0.078126,0.07031 0.148438,0.136718 0.226563,0.207031 0.585937,0.371094 1.25,0.214844 1.878906,0.28125 0.410157,0.257813 0.285157,0.917969 0.8125,1.085937 0.105469,0.394532 -0.28125,0.828126 0.09766,1.203126 0.08203,0.304687 -0.53125,0.410156 -0.222657,0.78125 0.261719,0.316406 0.546875,0.203124 0.832031,0.04297 0.06641,0.08594 0.128907,0.171875 0.191407,0.265625 -0.101563,0.785157 -0.203125,1.570313 -0.304688,2.359375 0.648438,0.789063 0.445313,-0.9375 1.027344,-0.347656 0.03125,1 1.074219,1.566406 1.109375,2.566406 -0.07031,0.671875 0.652344,0.953125 0.757812,1.539063 -0.08984,0.06641 -0.179687,0.136719 -0.269531,0.207031 0.707031,0.742188 1.417969,1.484375 2.125,2.230469 0.441407,0.851562 1.347657,1.234369 1.933594,1.945309 0.304687,0.50391 0.691406,0.83985 1.332031,0.66016 0.566406,0.39844 1.132813,0.39844 1.699219,0.004 0.06641,0.0859 0.132813,0.17188 0.199219,0.25782 0.445312,-0.34375 0.894531,-0.6836 1.339844,-1.02735 0.625,-0.47656 1.25,-0.95312 1.878906,-1.433589 0.355468,-0.273438 0.710937,-0.546875 1.070312,-0.820313 -0.453125,-0.464844 -0.02344,-0.570312 0.292969,-0.722656 0.316406,-0.203125 0.671875,-0.371094 0.640625,-0.84375 1.238281,-0.859375 2.34375,-1.847656 3.078125,-3.199219 0.08203,-0.08203 0.164063,-0.160156 0.25,-0.242187 0.632813,-0.203125 1.222656,-0.445313 1.21875,-1.265625 0.699219,-0.714844 1.765625,-1.0625 2.113281,-2.125 2.355469,-1.800781 4.519532,-3.796875 6.371094,-6.121094 l -0.01953,-0.0078 c 0,-0.0039 0,-0.0039 0.0039,-0.0078 0.0039,0.0039 0.01172,0.01172 0.01563,0.01563 1.839844,-0.867187 2.976562,-2.597656 4.574219,-3.773437 0.453125,-0.335938 1.183593,-0.703126 1.132812,-1.519532 1.515625,-1.046875 3.023438,-2.09375 3.929688,-3.777344 1.769531,-0.878906 3.101562,-2.261718 4.339843,-3.753906 0.738282,-0.113281 1.339844,-0.347656 1.144532,-1.292968 0.273437,-0.191407 0.546875,-0.382813 0.820312,-0.574219 1.25,0.06641 1.078125,-1.335938 1.914063,-1.851563 1.140625,-0.699218 2.390625,-1.488281 3.03125,-2.8125 1.476562,0.425782 1.25,-1.335937 2.136719,-1.660156 2.625,-1.78125 4.894531,-4.003906 7.367187,-5.960938 3.429687,-2.71875 7.011719,-5.253906 10.398437,-8.039062 1.472657,-1.003906 3.148438,-1.816406 4.34375,-3.085938 0.804688,-0.847656 2.519532,-0.847656 2.472657,-2.496093 1.886719,-0.855469 3.183593,-2.46875 4.78125,-3.703125 0.835937,-0.128906 1.429687,-0.695313 2.082031,-1.160156 1.46875,-0.402344 2.21875,-1.773438 3.378906,-2.597657 0.328125,-0.230469 1.375,-0.210937 0.976563,-1.164062 C 98.121094,34.339844 98.535156,34 98.96875,33.6875 c 0.503906,-0.367188 0.265625,-0.582031 -0.132812,-0.785156 -1.085938,-1.597656 0.675781,-1.792969 1.296872,-2.382813 1.04688,-0.984375 1.07422,-2.441406 1.94532,-3.460937 0.55078,-0.484375 1.14843,-0.9375 1.1914,-1.769532 1.26953,-1.4375 2.66406,-2.8125 2.58203,-4.960937 -0.34375,-0.445313 -0.68359,-0.894531 -1.02734,-1.34375 -0.58594,-0.363281 -1.23828,-0.207031 -1.875,-0.21875 z m 0,0"
           fill-opacity="1"
           fill-rule="nonzero"
           id="path13" />
      </g>
    </g>
  </g>
</svg>
