<svg width="10" height="10" viewBox="0 0 10 10" fill="none" xmlns="http://www.w3.org/2000/svg">
<path d="M0.52827 0.528514C0.788619 0.268165 1.21073 0.268165 1.47108 0.528514L4.99967 4.05711L8.52827 0.528514C8.78862 0.268165 9.21073 0.268165 9.47108 0.528514C9.73143 0.788864 9.73143 1.21097 9.47108 1.47132L5.94248 4.99992L9.47108 8.52851C9.73143 8.78886 9.73143 9.21097 9.47108 9.47132C9.21073 9.73167 8.78862 9.73167 8.52827 9.47132L4.99967 5.94273L1.47108 9.47132C1.21073 9.73167 0.788619 9.73167 0.52827 9.47132C0.26792 9.21097 0.26792 8.78886 0.52827 8.52851L4.05687 4.99992L0.52827 1.47132C0.26792 1.21097 0.26792 0.788864 0.52827 0.528514Z" fill="white"/>
</svg>
