<svg width="24" height="25" viewBox="0 0 24 25" fill="none" xmlns="http://www.w3.org/2000/svg">
<path d="M9 1.5C7.89543 1.5 7 2.39543 7 3.5V4.5H5H3C2.44772 4.5 2 4.94772 2 5.5C2 6.05228 2.44772 6.5 3 6.5H4V20.5C4 22.1569 5.34315 23.5 7 23.5H17C18.6569 23.5 20 22.1569 20 20.5V6.5H21C21.5523 6.5 22 6.05228 22 5.5C22 4.94772 21.5523 4.5 21 4.5H19H17V3.5C17 2.39543 16.1046 1.5 15 1.5H9ZM15 4.5H9V3.5H15V4.5ZM8 6.5H16H18V20.5C18 21.0523 17.5523 21.5 17 21.5H7C6.44772 21.5 6 21.0523 6 20.5V6.5H8ZM11 11.5C11 10.9477 10.5523 10.5 10 10.5C9.44772 10.5 9 10.9477 9 11.5V16.5C9 17.0523 9.44771 17.5 10 17.5C10.5523 17.5 11 17.0523 11 16.5V11.5ZM14 10.5C14.5523 10.5 15 10.9477 15 11.5V16.5C15 17.0523 14.5523 17.5 14 17.5C13.4477 17.5 13 17.0523 13 16.5V11.5C13 10.9477 13.4477 10.5 14 10.5Z" fill="#919191"/>
</svg>
