<svg width="4" height="17" viewBox="0 0 4 17" fill="none" xmlns="http://www.w3.org/2000/svg">
<path d="M4 2.5C4 3.60457 3.10457 4.5 2 4.5C0.895431 4.5 0 3.60457 0 2.5C0 1.39543 0.895431 0.5 2 0.5C3.10457 0.5 4 1.39543 4 2.5ZM4 8.5C4 9.60457 3.10457 10.5 2 10.5C0.895431 10.5 0 9.60457 0 8.5C0 7.39543 0.895431 6.5 2 6.5C3.10457 6.5 4 7.39543 4 8.5ZM2 16.5C3.10457 16.5 4 15.6046 4 14.5C4 13.3954 3.10457 12.5 2 12.5C0.895431 12.5 0 13.3954 0 14.5C0 15.6046 0.895431 16.5 2 16.5Z" fill="#919191"/>
</svg>
