<svg width="32" height="32" viewBox="0 0 32 32" fill="none" xmlns="http://www.w3.org/2000/svg">
<rect width="32" height="32" rx="10" fill="#EEEEEE"/>
<path d="M17.3337 7.99996C17.3337 7.26358 16.7367 6.66663 16.0003 6.66663C15.2639 6.66663 14.667 7.26358 14.667 7.99996V14.6666H8.00033C7.26395 14.6666 6.66699 15.2636 6.66699 16C6.66699 16.7363 7.26395 17.3333 8.00033 17.3333H14.667V24C14.667 24.7363 15.2639 25.3333 16.0003 25.3333C16.7367 25.3333 17.3337 24.7363 17.3337 24V17.3333H24.0003C24.7367 17.3333 25.3337 16.7363 25.3337 16C25.3337 15.2636 24.7367 14.6666 24.0003 14.6666H17.3337V7.99996Z" fill="#FF0151"/>
</svg>
