<svg width="32" height="32" viewBox="0 0 32 32" fill="none" xmlns="http://www.w3.org/2000/svg">
<rect width="32" height="32" rx="10" fill="#1877F2"/>
<g clip-path="url(#clip0_20_4113)">
<path d="M32 16C32 7.1625 24.8375 0 16 0C7.1625 0 0 7.1625 0 16C0 23.9875 5.85 30.6062 13.5 31.8062V20.625H9.4375V16H13.5V12.475C13.5 8.46563 15.8875 6.25 19.5438 6.25C21.2938 6.25 23.125 6.5625 23.125 6.5625V10.5H21.1063C19.1188 10.5 18.5 11.7344 18.5 13V16H22.9375L22.2281 20.625H18.5V31.8062C26.15 30.6062 32 23.9875 32 16Z" fill="#1877F2"/>
<path d="M22.2906 17.375L23 12.75H18.5625V9.75C18.5625 8.48438 19.1813 7.25 21.1688 7.25H23.1875V3.3125C23.1875 3.3125 21.3563 3 19.6063 3C15.95 3 13.5625 5.21563 13.5625 9.225V12.75H9.5V17.375H13.5625V28.5562C14.3781 28.6844 15.2125 28.75 16.0625 28.75C16.9125 28.75 17.7469 28.6844 18.5625 28.5562V17.375H22.2906Z" fill="white"/>
</g>
<defs>
<clipPath id="clip0_20_4113">
<rect width="32" height="32" fill="white"/>
</clipPath>
</defs>
</svg>
