<svg width="32" height="32" viewBox="0 0 32 32" fill="none" xmlns="http://www.w3.org/2000/svg">
<rect width="32" height="32" rx="10" fill="#1ED760"/>
<path d="M15.9999 0C7.16359 0 0 7.1634 0 15.9997C0 24.837 7.16359 32 15.9999 32C24.8366 32 32 24.837 32 15.9997C32 7.1634 24.8366 0 15.9999 0Z" fill="#1ED760"/>
<path d="M22.9862 22.7297C22.703 23.1941 22.0984 23.3396 21.6356 23.0566C17.9351 20.7948 13.2773 20.2841 7.79181 21.537C7.26321 21.6582 6.73631 21.327 6.61588 20.7986C6.49469 20.27 6.82476 19.7431 7.35448 19.6225C13.3574 18.2503 18.5066 18.8408 22.6603 21.3789C23.1234 21.6618 23.2692 22.2668 22.9862 22.7297Z" fill="white"/>
<path d="M24.9146 18.4386C24.5582 19.0169 23.8021 19.1983 23.2246 18.8432C18.9898 16.2401 12.5318 15.4859 7.52152 17.0068C6.87193 17.203 6.18563 16.8368 5.98823 16.1882C5.79253 15.5386 6.15891 14.8536 6.80757 14.656C12.5311 12.9191 19.6463 13.7603 24.5104 16.7495C25.0879 17.1052 25.2697 17.8617 24.9146 18.4386Z" fill="white"/>
<path d="M25.0809 13.9705C20.0011 10.9538 11.6222 10.6764 6.77302 12.1481C5.99415 12.3845 5.17067 11.9449 4.93488 11.1662C4.6989 10.387 5.13793 9.56406 5.91718 9.32733C11.4839 7.63766 20.7375 7.96397 26.5854 11.4353C27.286 11.8512 27.5155 12.7558 27.1004 13.4551C26.6849 14.1555 25.7796 14.3864 25.0809 13.9705Z" fill="white"/>
</svg>
