<svg width="24" height="24" viewBox="0 0 24 24" fill="#fff" xmlns="http://www.w3.org/2000/svg">
<g clip-path="url(#clip0_4243_6856)">
<path d="M7.77833 13.4351C5.8257 11.4825 5.82571 8.31663 7.77833 6.36401L12.021 2.12137C13.9736 0.168746 17.1394 0.168745 19.092 2.12137C21.0447 4.07399 21.0447 7.23981 19.092 9.19244L18.7385 9.54599C18.348 9.93651 17.7148 9.93651 17.3243 9.54599C16.9337 9.15546 16.9337 8.5223 17.3243 8.13177L17.6778 7.77822C18.8494 6.60665 18.8494 4.70715 17.6778 3.53558C16.5062 2.36401 14.6068 2.36401 13.4352 3.53558L9.19254 7.77822C8.02097 8.94979 8.02097 10.8493 9.19254 12.0209C9.82602 12.6543 10.6708 12.9455 11.5021 12.8937C12.0533 12.8593 12.528 13.2783 12.5624 13.8295C12.5967 14.3807 12.1777 14.8554 11.6265 14.8898C10.2469 14.9758 8.83439 14.4911 7.77833 13.4351ZM4.24279 21.2133C2.29017 19.2606 2.29017 16.0948 4.24279 14.1422L4.59635 13.7886C4.98687 13.3981 5.62003 13.3981 6.01056 13.7886C6.40108 14.1792 6.40108 14.8123 6.01056 15.2028L5.65701 15.5564C4.48543 16.728 4.48543 18.6275 5.65701 19.799C6.82858 20.9706 8.72807 20.9706 9.89965 19.799L14.1423 15.5564C15.3139 14.3848 15.3139 12.4853 14.1423 11.3138C13.6399 10.8114 13.0064 10.5253 12.3518 10.4532C11.8029 10.3928 11.4068 9.89876 11.4673 9.34979C11.5277 8.80083 12.0217 8.4048 12.5707 8.46524C13.661 8.58529 14.7211 9.06412 15.5565 9.89954C17.5091 11.8522 17.5091 15.018 15.5565 16.9706L11.3139 21.2133C9.36124 23.1659 6.19541 23.1659 4.24279 21.2133Z"/>
</g>
<defs>
<clipPath id="clip0_4243_6856">
<rect width="24" height="24" fill="#FF0151"/>
</clipPath>
</defs>
</svg>
