<svg width="32" height="32" viewBox="0 0 32 32" fill="none" xmlns="http://www.w3.org/2000/svg">
<g id="Wallet2">
<path id="icon" d="M30.6654 12C30.6654 9.79086 28.8745 8 26.6654 8H25.9987V5.10114C25.9987 2.65327 23.8197 0.779574 21.3995 1.14628L4.73281 3.67153C2.77739 3.96781 1.33203 5.64865 1.33203 7.62639V26.6667C1.33203 28.8758 3.12289 30.6667 5.33203 30.6667H26.6654C28.8745 30.6667 30.6654 28.8758 30.6654 26.6667V12ZM23.332 5.10114V8H5.33203C4.86452 8 4.41574 8.0802 3.9987 8.2276V7.62639C3.9987 6.96715 4.48048 6.40686 5.13229 6.3081L21.799 3.78285C22.6057 3.66062 23.332 4.28519 23.332 5.10114ZM3.9987 12C3.9987 11.2636 4.59565 10.6667 5.33203 10.6667H26.6654C27.4017 10.6667 27.9987 11.2636 27.9987 12V14.6667H23.332C20.7547 14.6667 18.6654 16.756 18.6654 19.3333C18.6654 21.9107 20.7547 24 23.332 24H27.9987V26.6667C27.9987 27.403 27.4017 28 26.6654 28H5.33203C4.59565 28 3.9987 27.403 3.9987 26.6667V12ZM27.9987 21.3333H23.332C22.2275 21.3333 21.332 20.4379 21.332 19.3333C21.332 18.2288 22.2275 17.3333 23.332 17.3333H27.9987V21.3333Z" fill="#4F759A"/>
</g>
</svg>
