<svg width="32" height="32" viewBox="0 0 32 32" fill="none" xmlns="http://www.w3.org/2000/svg">
<g id="User">
<path id="icon" d="M11.9987 7.99998C11.9987 5.79084 13.7896 3.99998 15.9987 3.99998C18.2078 3.99998 19.9987 5.79084 19.9987 7.99998C19.9987 10.2091 18.2078 12 15.9987 12C13.7896 12 11.9987 10.2091 11.9987 7.99998ZM15.9987 1.33331C12.3168 1.33331 9.33203 4.31808 9.33203 7.99998C9.33203 11.6819 12.3168 14.6666 15.9987 14.6666C19.6806 14.6666 22.6654 11.6819 22.6654 7.99998C22.6654 4.31808 19.6806 1.33331 15.9987 1.33331ZM11.9987 17.3333C8.3168 17.3333 5.33203 20.3181 5.33203 24V28C5.33203 28.7364 5.92898 29.3333 6.66536 29.3333C7.40174 29.3333 7.9987 28.7364 7.9987 28V24C7.9987 21.7908 9.78956 20 11.9987 20H19.9987C22.2078 20 23.9987 21.7908 23.9987 24V28C23.9987 28.7364 24.5957 29.3333 25.332 29.3333C26.0684 29.3333 26.6654 28.7364 26.6654 28V24C26.6654 20.3181 23.6806 17.3333 19.9987 17.3333H11.9987Z" fill="#4F759A"/>
</g>
</svg>
