<svg width="24" height="24" viewBox="0 0 24 24" fill="currentColor" xmlns="http://www.w3.org/2000/svg">
<path d="M11 1H10V2V3.04938C4.94668 3.5511 1 7.81465 1 13C1 18.5228 5.47715 23 11 23C14.7099 23 17.9462 20.9799 19.672 17.9825L20.6314 18.4125L21.5434 18.8213L21.9527 17.9095C22.626 16.4096 23 14.7471 23 13C23 6.37258 17.6274 1 11 1ZM17.8353 17.1594C16.4301 19.4636 13.8936 21 11 21C6.58172 21 3 17.4183 3 13C3 8.92038 6.05369 5.55399 10 5.06189V13V13.6477L10.591 13.9125L17.8353 17.1594ZM12 12.3523V3.04938C17.0533 3.5511 21 7.81465 21 13C21 14.1048 20.8212 15.1663 20.4914 16.1581L12 12.3523Z"/>
</svg>
