<svg viewBox="0 0 20 20" fill="currentColor" xmlns="http://www.w3.org/2000/svg">
  <path
    d="M3 0C1.34315 0 0 1.34315 0 3V6C0 7.65685 1.34315 9 3 9H8C8.55228 9 9 8.55228 9 8V3C9 1.34315 7.65685 0 6 0H3ZM2 3C2 2.44772 2.44772 2 3 2H6C6.55228 2 7 2.44772 7 3V7H3C2.44772 7 2 6.55228 2 6V3ZM3 11C1.34315 11 0 12.3431 0 14V17C0 18.6569 1.34315 20 3 20H6C7.65685 20 9 18.6569 9 17V12C9 11.4477 8.55228 11 8 11H3ZM2 14C2 13.4477 2.44772 13 3 13H7V17C7 17.5523 6.55228 18 6 18H3C2.44772 18 2 17.5523 2 17V14ZM11 3C11 1.34315 12.3431 0 14 0H17C18.6569 0 20 1.34315 20 3V6C20 7.65685 18.6569 9 17 9H12C11.4477 9 11 8.55228 11 8V3ZM14 2C13.4477 2 13 2.44772 13 3V7H17C17.5523 7 18 6.55228 18 6V3C18 2.44772 17.5523 2 17 2H14ZM12 11C11.4477 11 11 11.4477 11 12V17C11 18.6569 12.3431 20 14 20H17C18.6569 20 20 18.6569 20 17V14C20 12.3431 18.6569 11 17 11H12ZM13 17V13H17C17.5523 13 18 13.4477 18 14V17C18 17.5523 17.5523 18 17 18H14C13.4477 18 13 17.5523 13 17Z"
    fill="currentColor" />
</svg>