<svg width="24" height="24" viewBox="0 0 24 24" fill="currentColor" xmlns="http://www.w3.org/2000/svg">
<path d="M12 3C11.5654 3 11.138 3.0308 10.7199 3.09035C10.5854 3.5785 10.4075 4.27861 10.2293 5.14011C10.0588 5.96392 9.8888 6.9317 9.75585 8H14.2441C14.1112 6.9317 13.9412 5.96392 13.7707 5.14011C13.5925 4.27861 13.4146 3.5785 13.2801 3.09035C12.862 3.0308 12.4346 3 12 3ZM8.27074 4.73489C8.34768 4.36303 8.42468 4.01904 8.4987 3.70646C6.51262 4.54596 4.89065 6.07805 3.93552 8H7.74127C7.8859 6.7707 8.07856 5.66374 8.27074 4.73489ZM7.56198 10H3.22302C3.07706 10.6432 3 11.3126 3 12C3 12.6874 3.07706 13.3568 3.22302 14H7.56198C7.52248 13.353 7.5 12.6843 7.5 12C7.5 11.3157 7.52248 10.647 7.56198 10ZM7.74127 16H3.93552C4.89065 17.922 6.51262 19.454 8.4987 20.2935C8.42468 19.981 8.34768 19.637 8.27074 19.2651C8.07856 18.3363 7.8859 17.2293 7.74127 16ZM9.75585 16C9.8888 17.0683 10.0588 18.0361 10.2293 18.8599C10.4075 19.7214 10.5854 20.4215 10.7199 20.9097C11.138 20.9692 11.5654 21 12 21C12.4346 21 12.862 20.9692 13.2801 20.9097C13.4146 20.4215 13.5925 19.7214 13.7707 18.8599C13.9412 18.0361 14.1112 17.0683 14.2441 16H9.75585ZM14.4341 14C14.476 13.3536 14.5 12.6845 14.5 12C14.5 11.3155 14.476 10.6464 14.4341 10H9.56593C9.52402 10.6464 9.5 11.3155 9.5 12C9.5 12.6845 9.52402 13.3536 9.56593 14H14.4341ZM16.2587 16C16.1141 17.2293 15.9214 18.3363 15.7293 19.2651C15.6523 19.637 15.5753 19.981 15.5013 20.2935C17.4874 19.454 19.1094 17.922 20.0645 16H16.2587ZM20.777 14C20.9229 13.3568 21 12.6874 21 12C21 11.3126 20.9229 10.6432 20.777 10H16.438C16.4775 10.647 16.5 11.3157 16.5 12C16.5 12.6843 16.4775 13.353 16.438 14H20.777ZM15.5013 3.70646C15.5753 4.01904 15.6523 4.36303 15.7293 4.73489C15.9214 5.66374 16.1141 6.7707 16.2587 8H20.0645C19.1094 6.07805 17.4874 4.54596 15.5013 3.70646ZM1 12C1 5.92487 5.92487 1 12 1C18.0751 1 23 5.92487 23 12C23 18.0751 18.0751 23 12 23C5.92487 23 1 18.0751 1 12Z"/>
</svg>
