<svg width="32" height="32" viewBox="0 0 32 32" fill="none" xmlns="http://www.w3.org/2000/svg">
<path d="M0 16C0 7.16344 7.16344 0 16 0C24.8366 0 32 7.16344 32 16C32 24.8366 24.8366 32 16 32C7.16344 32 0 24.8366 0 16Z" fill="white"/>
<path d="M15.9999 8.64C18.2532 8.64 19.7732 9.61333 20.6399 10.4267L24.0266 7.12C21.9466 5.18667 19.2399 4 15.9999 4C11.3066 4 7.25324 6.69333 5.27991 10.6133L9.1599 13.6267C10.1332 10.7333 12.8266 8.64 15.9999 8.64Z" fill="#EA4335"/>
<path d="M27.52 16.2666C27.52 15.28 27.44 14.56 27.2667 13.8133H16V18.2666H22.6133C22.48 19.3733 21.76 21.04 20.16 22.16L23.9467 25.0933C26.2133 23 27.52 19.92 27.52 16.2666Z" fill="#4285F4"/>
<path d="M9.17333 18.3733C8.91999 17.6267 8.77333 16.8267 8.77333 16C8.77333 15.1733 8.91999 14.3733 9.15999 13.6267L5.28 10.6133C4.46667 12.24 4 14.0667 4 16C4 17.9333 4.46667 19.76 5.28 21.3867L9.17333 18.3733Z" fill="#FBBC05"/>
<path d="M16.0001 28C19.2401 28 21.9601 26.9333 23.9468 25.0933L20.1601 22.16C19.1468 22.8667 17.7868 23.36 16.0001 23.36C12.8268 23.36 10.1335 21.2667 9.17345 18.3734L5.29346 21.3867C7.26679 25.3067 11.3068 28 16.0001 28Z" fill="#34A853"/>
</svg>
