<svg width="32" height="32" viewBox="0 0 32 32" fill="none" xmlns="http://www.w3.org/2000/svg">
<rect width="32" height="32" rx="10" fill="url(#paint0_linear_20_4112)"/>
<mask id="mask0_20_4112" style="mask-type:luminance" maskUnits="userSpaceOnUse" x="0" y="0" width="32" height="32">
<path fill-rule="evenodd" clip-rule="evenodd" d="M0 16C0 7.16344 7.16344 0 16 0C24.8366 0 32 7.16344 32 16C32 24.8366 24.8366 32 16 32C7.16344 32 0 24.8366 0 16Z" fill="white"/>
</mask>
<g mask="url(#mask0_20_4112)">
<path fill-rule="evenodd" clip-rule="evenodd" d="M16.0009 7.46667C13.6834 7.46667 13.3925 7.4768 12.4823 7.51822C11.5739 7.55982 10.9538 7.70365 10.4112 7.91467C9.84993 8.13263 9.37384 8.42419 8.89952 8.89868C8.42485 9.373 8.13329 9.84909 7.91462 10.4102C7.70307 10.9529 7.55906 11.5732 7.51818 12.4813C7.47746 13.3915 7.4668 13.6826 7.4668 16.0001C7.4668 18.3176 7.47711 18.6076 7.51835 19.5178C7.56013 20.4263 7.70395 21.0464 7.9148 21.5889C8.13294 22.1502 8.4245 22.6263 8.89899 23.1006C9.37313 23.5753 9.84922 23.8675 10.4101 24.0855C10.9531 24.2965 11.5733 24.4404 12.4816 24.482C13.3918 24.5234 13.6825 24.5335 15.9999 24.5335C18.3176 24.5335 18.6075 24.5234 19.5178 24.482C20.4262 24.4404 21.047 24.2965 21.59 24.0855C22.151 23.8675 22.6264 23.5753 23.1006 23.1006C23.5752 22.6263 23.8668 22.1502 24.0855 21.5891C24.2952 21.0464 24.4392 20.4261 24.4819 19.518C24.5228 18.6078 24.5335 18.3176 24.5335 16.0001C24.5335 13.6826 24.5228 13.3917 24.4819 12.4815C24.4392 11.573 24.2952 10.9529 24.0855 10.4103C23.8668 9.84909 23.5752 9.373 23.1006 8.89868C22.6259 8.42401 22.1512 8.13245 21.5894 7.91467C21.0454 7.70365 20.425 7.55982 19.5165 7.51822C18.6063 7.4768 18.3165 7.46667 15.9983 7.46667H16.0009ZM15.716 9.00438H15.7161L16.0005 9.00446C18.2789 9.00446 18.549 9.01264 19.4487 9.05353C20.2807 9.09157 20.7323 9.2306 21.0331 9.3474C21.4313 9.50207 21.7152 9.68696 22.0137 9.98563C22.3124 10.2843 22.4973 10.5687 22.6523 10.967C22.7691 11.2674 22.9083 11.719 22.9462 12.551C22.9871 13.4506 22.996 13.7208 22.996 15.9981C22.996 18.2755 22.9871 18.5457 22.9462 19.4453C22.9081 20.2773 22.7691 20.7288 22.6523 21.0293C22.4976 21.4275 22.3124 21.7111 22.0137 22.0096C21.7151 22.3082 21.4315 22.4931 21.0331 22.6478C20.7326 22.7651 20.2807 22.9038 19.4487 22.9419C18.5492 22.9827 18.2789 22.9916 16.0005 22.9916C13.7219 22.9916 13.4519 22.9827 12.5523 22.9419C11.7203 22.9035 11.2687 22.7644 10.9677 22.6476C10.5695 22.493 10.2851 22.3081 9.9864 22.0094C9.68773 21.7107 9.50284 21.427 9.34782 21.0286C9.23102 20.7281 9.09182 20.2766 9.05395 19.4446C9.01306 18.545 9.00488 18.2748 9.00488 15.996C9.00488 13.7172 9.01306 13.4484 9.05395 12.5489C9.09199 11.7168 9.23102 11.2653 9.34782 10.9645C9.50249 10.5663 9.68773 10.2818 9.9864 9.98314C10.2851 9.68447 10.5695 9.49958 10.9677 9.34455C11.2686 9.22722 11.7203 9.08855 12.5523 9.05033C13.3395 9.01477 13.6446 9.0041 15.235 9.00233V9.00446C15.3836 9.00423 15.5435 9.0043 15.716 9.00438ZM19.532 11.445C19.532 10.8795 19.9907 10.4214 20.556 10.4214V10.421C21.1213 10.421 21.58 10.8797 21.58 11.445C21.58 12.0104 21.1213 12.469 20.556 12.469C19.9907 12.469 19.532 12.0104 19.532 11.445ZM16.0012 11.6178C13.5812 11.6179 11.6191 13.58 11.6191 16.0001C11.6191 18.4202 13.5813 20.3815 16.0014 20.3815C18.4215 20.3815 20.383 18.4202 20.383 16.0001C20.383 13.58 18.4213 11.6178 16.0012 11.6178ZM18.8454 16.0001C18.8454 14.4291 17.5718 13.1556 16.0009 13.1556C14.4299 13.1556 13.1565 14.4291 13.1565 16.0001C13.1565 17.5709 14.4299 18.8446 16.0009 18.8446C17.5718 18.8446 18.8454 17.5709 18.8454 16.0001Z" fill="white"/>
</g>
<defs>
<linearGradient id="paint0_linear_20_4112" x1="29" y1="-8.89993e-07" x2="-24.5" y2="64.5" gradientUnits="userSpaceOnUse">
<stop stop-color="#720FFF"/>
<stop offset="0.296875" stop-color="#FF00C1"/>
<stop offset="0.53125" stop-color="#FF2E00"/>
<stop offset="0.765625" stop-color="#FF7300"/>
<stop offset="1" stop-color="#FFC200"/>
</linearGradient>
</defs>
</svg>
