<svg width="24" height="24" viewBox="0 0 24 24" fill="none" xmlns="http://www.w3.org/2000/svg">
<path d="M11.9999 0C5.37269 0 0 5.37255 0 11.9998C0 18.6277 5.37269 24 11.9999 24C18.6275 24 24 18.6277 24 11.9998C24 5.37255 18.6275 0 11.9999 0Z" fill="#1ED760"/>
<path d="M17.2399 17.0473C17.0275 17.3956 16.574 17.5047 16.227 17.2925C13.4516 15.5962 9.95819 15.2131 5.8441 16.1528C5.44766 16.2437 5.05248 15.9953 4.96215 15.599C4.87126 15.2025 5.11881 14.8073 5.51611 14.7169C10.0183 13.6877 13.8802 14.1306 16.9955 16.0342C17.3428 16.2464 17.4522 16.7001 17.2399 17.0473Z" fill="white"/>
<path d="M18.6855 13.8289C18.4182 14.2626 17.8511 14.3986 17.4179 14.1323C14.2418 12.18 9.39837 11.6143 5.64065 12.755C5.15346 12.9022 4.63874 12.6275 4.49069 12.141C4.34391 11.6538 4.6187 11.1401 5.10519 10.9919C9.39781 9.68923 14.7343 10.3201 18.3823 12.562C18.8155 12.8288 18.9518 13.3961 18.6855 13.8289Z" fill="white"/>
<path d="M18.8106 10.4778C15.0008 8.21524 8.71667 8.00721 5.07977 9.11103C4.49561 9.28829 3.878 8.9586 3.70116 8.37459C3.52418 7.79015 3.85345 7.17296 4.43789 6.99541C8.61294 5.72816 15.5531 5.97289 19.939 8.57641C20.4645 8.88832 20.6367 9.56675 20.3253 10.0912C20.0137 10.6165 19.3347 10.7897 18.8106 10.4778Z" fill="white"/>
</svg>
