<svg width="32" height="32" viewBox="0 0 32 32" fill="none" xmlns="http://www.w3.org/2000/svg">
<path d="M15.9999 0C7.16359 0 0 7.1634 0 15.9997C0 24.837 7.16359 32 15.9999 32C24.8366 32 32 24.837 32 15.9997C32 7.1634 24.8366 0 15.9999 0Z" fill="#1ED760"/>
<path d="M22.986 22.7297C22.7028 23.1941 22.0981 23.3396 21.6354 23.0565C17.9348 20.7948 13.277 20.2841 7.79157 21.537C7.26297 21.6582 6.73607 21.327 6.61563 20.7986C6.49444 20.27 6.82451 19.7431 7.35424 19.6224C13.3572 18.2502 18.5063 18.8407 22.66 21.3789C23.1232 21.6618 23.269 22.2668 22.986 22.7297Z" fill="white"/>
<path d="M24.9143 18.4386C24.5578 19.0169 23.8017 19.1983 23.2242 18.8432C18.9894 16.2401 12.5314 15.4859 7.52116 17.0068C6.87156 17.2031 6.18527 16.8369 5.98787 16.1882C5.79216 15.5386 6.15855 14.8536 6.8072 14.656C12.5307 12.9191 19.646 13.7603 24.51 16.7495C25.0876 17.1052 25.2694 17.8617 24.9143 18.4386Z" fill="white"/>
<path d="M25.0806 13.9705C20.0009 10.9538 11.622 10.6764 6.77278 12.1481C5.9939 12.3845 5.17043 11.9449 4.93464 11.1662C4.69866 10.387 5.13768 9.56405 5.91694 9.32732C11.4837 7.63765 20.7372 7.96396 26.5851 11.4353C27.2857 11.8512 27.5153 12.7558 27.1002 13.455C26.6847 14.1555 25.7793 14.3864 25.0806 13.9705Z" fill="white"/>
</svg>
